<svg width="232" height="307" viewBox="0 0 232 307" fill="none" xmlns="http://www.w3.org/2000/svg">
<path d="M30.1074 90.979L60.1481 108.18L60.1481 172.99L30.3601 190.023L30.1074 90.979Z" fill="url(#paint0_linear_2012_146)"/>
<path d="M201.876 90.6738L171.859 108.205L171.859 173.002L201.75 189.713L201.876 90.6738Z" fill="url(#paint1_linear_2012_146)"/>
<path d="M201.773 189.721L171.855 172.998L116.002 205.236L116.002 239.847L201.773 189.721Z" fill="url(#paint2_linear_2012_146)"/>
<path d="M115.997 239.846L116.121 205.256L60.1364 172.994L30.3591 189.975L115.997 239.846Z" fill="url(#paint3_linear_2012_146)"/>
<path d="M231.663 73.6372L201.639 90.9713L115.867 41.4509L116.006 6.86271L231.663 73.6372Z" fill="#DA125A"/>
<path d="M0.337112 207.149L30.363 189.963L115.994 239.268L115.994 273.861L0.337112 207.149Z" fill="#DA125A"/>
<path d="M231.663 207.125L201.639 189.791L201.639 90.75L231.663 73.576L231.663 207.125Z" fill="#ED2C72"/>
<path d="M0.337112 73.6006L30.3607 90.9347L30.3607 189.976L0.337121 207.15L0.337112 73.6006Z" fill="#ED2C72"/>
<path d="M116.006 273.899L116.006 239.231L201.644 189.787L231.663 207.125L116.006 273.899Z" fill="#EA1B66"/>
<path d="M115.994 6.86279L115.994 41.5311L30.2219 91.0515L0.337038 73.6373L115.994 6.86279Z" fill="#DA125A"/>
<path d="M116 205.25L60.1413 173L60.1413 32.25L116 -4.88332e-06L171.859 32.25L171.859 173L116 205.25Z" fill="url(#paint4_linear_2012_146)"/>
<path d="M70.4393 141.83H76.8193C76.7807 141.037 76.4907 140.37 75.9493 139.829C75.4273 139.288 74.654 139.017 73.6293 139.017C72.7013 139.017 71.9473 139.307 71.3673 139.887C70.7873 140.467 70.478 141.115 70.4393 141.83ZM77.1963 145.542L80.4153 146.499C80.0287 147.814 79.265 148.896 78.1243 149.747C77.003 150.598 75.6013 151.023 73.9193 151.023C71.87 151.023 70.13 150.337 68.6993 148.964C67.2687 147.572 66.5533 145.716 66.5533 143.396C66.5533 141.192 67.2493 139.394 68.6413 138.002C70.0333 136.591 71.6767 135.885 73.5713 135.885C75.7753 135.885 77.496 136.542 78.7333 137.857C79.99 139.172 80.6183 140.979 80.6183 143.28C80.6183 143.435 80.6087 143.609 80.5893 143.802C80.5893 143.995 80.5893 144.15 80.5893 144.266L80.5603 144.469H70.3523C70.391 145.397 70.7583 146.17 71.4543 146.789C72.1503 147.408 72.9817 147.717 73.9483 147.717C75.5917 147.717 76.6743 146.992 77.1963 145.542ZM103.231 144.237L106.943 130.027H111.032L105.348 150.588H101.23L96.5316 135.943L91.8336 150.588H87.6576L81.9446 130.027H86.1786L89.9486 144.179L94.5016 130.027H98.6486L103.231 144.237ZM117.77 139.394H120.931C121.917 139.394 122.7 139.133 123.28 138.611C123.86 138.07 124.15 137.354 124.15 136.465C124.15 135.556 123.86 134.841 123.28 134.319C122.719 133.778 121.936 133.507 120.931 133.507H117.77V139.394ZM121.424 142.845H117.741V150.588H113.739V130.027H121.424C123.434 130.027 125.058 130.626 126.296 131.825C127.552 133.024 128.181 134.561 128.181 136.436C128.181 138.311 127.552 139.848 126.296 141.047C125.058 142.246 123.434 142.845 121.424 142.845ZM146.464 133.826H139.968V150.588H135.937V133.826H129.441V130.027H146.464V133.826ZM165.896 130.027L159.168 140.322L165.925 150.588H161.082L156.645 143.483L152.179 150.588H147.481L154.238 140.293L147.51 130.027H152.324L156.732 137.132L161.227 130.027H165.896Z" fill="white"/>
<path d="M116 273.861L167.359 303.513C169.359 304.668 171.859 303.225 171.859 300.915V241.736L116 273.861L60.1413 241.736L60.1413 300.915C60.1413 303.225 62.6413 304.668 64.6413 303.513L116 273.861Z" fill="url(#paint5_linear_2012_146)"/>
<path fill-rule="evenodd" clip-rule="evenodd" d="M142.569 46.2461L144.198 46.2461C145.447 46.2461 146.072 47.7562 145.189 48.6395L127.588 66.2406C127.061 66.7674 126.207 66.7674 125.68 66.2406C125.153 65.7137 125.153 64.8595 125.68 64.3327L141.03 48.9825C133.075 49.3789 125.556 52.8361 120.07 58.6646C119.559 59.2071 118.705 59.2329 118.163 58.7222C117.62 58.2115 117.594 57.3577 118.105 56.8152C124.454 50.0704 133.306 46.2461 142.569 46.2461ZM104.25 72.5772C104.777 73.104 104.777 73.9582 104.25 74.485L93.359 85.376L94.9354 89.4385L98.9979 91.0149L109.889 80.1239C110.416 79.5971 111.27 79.5971 111.797 80.1239C112.324 80.6508 112.324 81.5049 111.797 82.0318L101.747 92.0816L104.462 93.1351C105.157 93.4046 105.501 94.1862 105.232 94.8808C104.962 95.5754 104.181 95.92 103.486 95.6505L94.183 92.0406L86.3727 99.851C85.8458 100.378 84.9917 100.378 84.4648 99.851C83.938 99.3241 83.938 98.47 84.4648 97.9431L92.3008 90.1072L88.7234 80.8879C88.4539 80.1933 88.7985 79.4117 89.4931 79.1422C90.1877 78.8726 90.9692 79.2172 91.2388 79.9118L92.2923 82.627L102.342 72.5772C102.869 72.0503 103.723 72.0503 104.25 72.5772Z" fill="url(#paint6_linear_2012_146)"/>
<path fill-rule="evenodd" clip-rule="evenodd" d="M84.554 48.6395C83.6708 47.7562 84.2964 46.2461 85.5454 46.2461L87.1736 46.2461C96.4298 46.2461 105.276 50.0647 111.624 56.8002L138.328 83.5047C138.855 84.0315 138.855 84.8857 138.328 85.4125C137.802 85.9394 136.947 85.9394 136.421 85.4125L109.687 58.6794L109.673 58.6646C104.187 52.8361 96.6679 49.3789 88.7127 48.9825L130.782 91.0514C131.309 91.5783 131.309 92.4324 130.782 92.9593C130.255 93.4861 129.401 93.4861 128.874 92.9593L84.554 48.6395Z" fill="url(#paint7_linear_2012_146)"/>
<path fill-rule="evenodd" clip-rule="evenodd" d="M140.25 79.1421C140.944 79.4117 141.289 80.1932 141.019 80.8879L136.893 91.5235L126.257 95.6505C125.562 95.92 124.781 95.5754 124.511 94.8808C124.242 94.1862 124.586 93.4046 125.281 93.1351L134.807 89.4385L138.504 79.9118C138.774 79.2172 139.555 78.8726 140.25 79.1421Z" fill="url(#paint8_linear_2012_146)"/>
<path fill-rule="evenodd" clip-rule="evenodd" d="M145.278 99.851C144.751 100.378 143.897 100.378 143.37 99.851L135.087 91.5672C134.56 91.0404 134.56 90.1862 135.087 89.6593C135.613 89.1325 136.468 89.1325 136.994 89.6593L145.278 97.9431C145.805 98.47 145.805 99.3241 145.278 99.851Z" fill="url(#paint9_linear_2012_146)"/>
<defs>
<linearGradient id="paint0_linear_2012_146" x1="30.8662" y1="123.301" x2="60.4625" y2="123.65" gradientUnits="userSpaceOnUse">
<stop stop-color="#EF7D22"/>
<stop offset="0.23" stop-color="#EF741D"/>
<stop offset="0.62" stop-color="#EE5A10"/>
<stop offset="1" stop-color="#EE3B00"/>
</linearGradient>
<linearGradient id="paint1_linear_2012_146" x1="171.859" y1="137.361" x2="185.165" y2="161.603" gradientUnits="userSpaceOnUse">
<stop stop-color="#EF7D22"/>
<stop offset="0.23" stop-color="#EF741D"/>
<stop offset="0.62" stop-color="#EE5A10"/>
<stop offset="1" stop-color="#EE3B00"/>
</linearGradient>
<linearGradient id="paint2_linear_2012_146" x1="114.562" y1="215.361" x2="144.104" y2="243.512" gradientUnits="userSpaceOnUse">
<stop stop-color="#EF7D22"/>
<stop offset="0.23" stop-color="#EF741D"/>
<stop offset="0.62" stop-color="#EE5A10"/>
<stop offset="1" stop-color="#EE3B00"/>
</linearGradient>
<linearGradient id="paint3_linear_2012_146" x1="30.0706" y1="191.361" x2="41.7608" y2="228.477" gradientUnits="userSpaceOnUse">
<stop stop-color="#EF7D22"/>
<stop offset="0.23" stop-color="#EF741D"/>
<stop offset="0.62" stop-color="#EE5A10"/>
<stop offset="1" stop-color="#EE3B00"/>
</linearGradient>
<linearGradient id="paint4_linear_2012_146" x1="116" y1="297.802" x2="116" y2="0.000540351" gradientUnits="userSpaceOnUse">
<stop stop-color="#6819CB"/>
<stop offset="0.885417" stop-color="#AF239C"/>
<stop offset="1" stop-color="#ED2C72"/>
</linearGradient>
<linearGradient id="paint5_linear_2012_146" x1="116.307" y1="241.711" x2="115.975" y2="306.287" gradientUnits="userSpaceOnUse">
<stop stop-color="#821DBA"/>
<stop offset="1" stop-color="#ED2C72"/>
</linearGradient>
<linearGradient id="paint6_linear_2012_146" x1="86.1758" y1="35.639" x2="159.378" y2="41.9088" gradientUnits="userSpaceOnUse">
<stop offset="0.177476" stop-color="#BB85FF"/>
<stop offset="1" stop-color="#FF5E5E"/>
</linearGradient>
<linearGradient id="paint7_linear_2012_146" x1="86.1758" y1="35.639" x2="159.378" y2="41.9088" gradientUnits="userSpaceOnUse">
<stop offset="0.177476" stop-color="#BB85FF"/>
<stop offset="1" stop-color="#FF5E5E"/>
</linearGradient>
<linearGradient id="paint8_linear_2012_146" x1="86.1758" y1="35.639" x2="159.378" y2="41.9088" gradientUnits="userSpaceOnUse">
<stop offset="0.177476" stop-color="#BB85FF"/>
<stop offset="1" stop-color="#FF5E5E"/>
</linearGradient>
<linearGradient id="paint9_linear_2012_146" x1="86.1758" y1="35.639" x2="159.378" y2="41.9088" gradientUnits="userSpaceOnUse">
<stop offset="0.177476" stop-color="#BB85FF"/>
<stop offset="1" stop-color="#FF5E5E"/>
</linearGradient>
</defs>
</svg>
